# xmcd
#
# Track frame offsets: 
#        150
#        12603
#        26882
#        42574
#        66202
#        84471
#        98061
#        120941
#        135944
#        154397
#        170026
#        180647
#        197058
#        220861
#        237172
#        253515
#        267346
#        298531
#        317339
#        340051
#
# Disc length: 4800 seconds
#
# Revision: 4
# Processed by: cddbd v1.5.2PL0 Copyright (c) Steve Scherf et al.
# Submitted via: ExactAudioCopy v0.99pb4
#
DISCID=1d12be14
DTITLE=Tom Russell - Museum of Memories
DYEAR=2002
DGENRE=Country
TTITLE0=Strung Out
TTITLE1=Shipwreck Kelly
TTITLE2=Cross of Guadalupe
TTITLE3=La Galué (The Glutton)
TTITLE4=Shut Out the Light
TTITLE5=Can't Keep No Liquor
TTITLE6=Chinatown in the Rain
TTITLE7=Amelia's Railroad Flat
TTITLE8=Mineral Wells
TTITLE9=The Heart
TTITLE10=Big Fool
TTITLE11=Ten Cent Lemonade
TTITLE12=Biggest Bordertown
TTITLE13=Roddy McCorley
TTITLE14=Hank and Audrey
TTITLE15=Closin' Sunny's Diner
TTITLE16=When Irish Girls Grow Up
TTITLE17=Open Pit Mine
TTITLE18=The Dogs Bark but the Caravan Moves On
TTITLE19=Dark Angel
EXTD=
EXTT0=
EXTT1=
EXTT2=
EXTT3=
EXTT4=
EXTT5=
EXTT6=
EXTT7=
EXTT8=
EXTT9=
EXTT10=
EXTT11=
EXTT12=
EXTT13=
EXTT14=
EXTT15=
EXTT16=
EXTT17=
EXTT18=
EXTT19=
PLAYORDER=
